<svg width="139" height="26" viewBox="0 0 139 26" fill="none" xmlns="http://www.w3.org/2000/svg">
<path d="M0.56 2.6V25H12.08V22.44H3.28V2.6H0.56ZM20.5023 25.32C22.0809 25.32 23.4463 25.0107 24.5983 24.392C25.7716 23.752 26.7423 22.8133 27.5103 21.576L25.4303 20.264C24.8969 21.16 24.2463 21.832 23.4783 22.28C22.7103 22.7067 21.8249 22.92 20.8223 22.92C19.8196 22.92 18.9663 22.7067 18.2623 22.28C17.5583 21.8533 17.0249 21.2347 16.6623 20.424C16.2996 19.6133 16.1183 18.632 16.1183 17.48C16.1396 16.3493 16.3316 15.4 16.6943 14.632C17.0783 13.8427 17.6116 13.2453 18.2943 12.84C18.9983 12.4133 19.8409 12.2 20.8223 12.2C21.6543 12.2 22.3796 12.3813 22.9983 12.744C23.6169 13.1067 24.0969 13.608 24.4383 14.248C24.8009 14.888 24.9823 15.6453 24.9823 16.52C24.9823 16.6693 24.9503 16.8613 24.8863 17.096C24.8223 17.3093 24.7583 17.4693 24.6943 17.576L25.7183 16.104H15.1583V18.28H27.7343C27.7343 18.2373 27.7343 18.1413 27.7343 17.992C27.7556 17.8213 27.7663 17.6613 27.7663 17.512C27.7663 15.9547 27.4889 14.6107 26.9343 13.48C26.3796 12.3493 25.5796 11.4853 24.5343 10.888C23.5103 10.2693 22.2729 9.96 20.8223 9.96C19.3716 9.96 18.0916 10.28 16.9823 10.92C15.8943 11.56 15.0409 12.456 14.4223 13.608C13.8249 14.76 13.5263 16.104 13.5263 17.64C13.5263 19.1547 13.8143 20.488 14.3903 21.64C14.9876 22.792 15.8089 23.6987 16.8543 24.36C17.9209 25 19.1369 25.32 20.5023 25.32ZM32.427 20.456C32.427 19.9227 32.555 19.464 32.811 19.08C33.067 18.696 33.451 18.3973 33.963 18.184C34.4963 17.9707 35.179 17.864 36.011 17.864C36.907 17.864 37.7497 17.9813 38.539 18.216C39.3283 18.4293 40.0963 18.792 40.843 19.304V17.8C40.6937 17.608 40.4057 17.3627 39.979 17.064C39.5523 16.744 38.9763 16.4667 38.251 16.232C37.547 15.976 36.6617 15.848 35.595 15.848C33.7817 15.848 32.363 16.2853 31.339 17.16C30.3363 18.0133 29.835 19.1547 29.835 20.584C29.835 21.5867 30.0697 22.44 30.539 23.144C31.0083 23.848 31.627 24.392 32.395 24.776C33.1843 25.1387 34.027 25.32 34.923 25.32C35.7337 25.32 36.5443 25.1707 37.355 24.872C38.187 24.5733 38.8803 24.1147 39.435 23.496C40.011 22.8773 40.299 22.0987 40.299 21.16L39.787 19.24C39.787 20.008 39.595 20.6907 39.211 21.288C38.8483 21.864 38.347 22.312 37.707 22.632C37.0883 22.952 36.3843 23.112 35.595 23.112C34.9763 23.112 34.4217 23.016 33.931 22.824C33.4617 22.6107 33.0883 22.3013 32.811 21.896C32.555 21.4907 32.427 21.0107 32.427 20.456ZM32.043 13.672C32.2777 13.5013 32.5977 13.2987 33.003 13.064C33.4083 12.8293 33.899 12.6267 34.475 12.456C35.0723 12.2853 35.7337 12.2 36.459 12.2C36.907 12.2 37.3337 12.2427 37.739 12.328C38.1443 12.4133 38.4963 12.552 38.795 12.744C39.115 12.936 39.3603 13.2027 39.531 13.544C39.7017 13.864 39.787 14.28 39.787 14.792V25H42.347V14.44C42.347 13.48 42.1017 12.6693 41.611 12.008C41.1417 11.3467 40.4697 10.8453 39.595 10.504C38.7417 10.1413 37.739 9.96 36.587 9.96C35.2217 9.96 34.0483 10.1627 33.067 10.568C32.107 10.9733 31.3497 11.3787 30.795 11.784L32.043 13.672ZM57.7213 0.039999V25H60.2812V0.039999H57.7213ZM45.4013 17.64C45.4013 19.2187 45.7319 20.584 46.3932 21.736C47.0546 22.888 47.9399 23.7733 49.0493 24.392C50.1586 25.0107 51.3746 25.32 52.6973 25.32C53.9346 25.32 55.0119 25.0107 55.9293 24.392C56.8466 23.7733 57.5613 22.888 58.0733 21.736C58.6066 20.584 58.8733 19.2187 58.8733 17.64C58.8733 16.04 58.6066 14.6747 58.0733 13.544C57.5613 12.392 56.8466 11.5067 55.9293 10.888C55.0119 10.2693 53.9346 9.96 52.6973 9.96C51.3746 9.96 50.1586 10.2693 49.0493 10.888C47.9399 11.5067 47.0546 12.392 46.3932 13.544C45.7319 14.6747 45.4013 16.04 45.4013 17.64ZM47.9933 17.64C47.9933 16.5093 48.2173 15.5493 48.6653 14.76C49.1346 13.9707 49.7533 13.3733 50.5213 12.968C51.2893 12.5627 52.1213 12.36 53.0173 12.36C53.7639 12.36 54.4999 12.5627 55.2253 12.968C55.9506 13.3733 56.5479 13.9707 57.0173 14.76C57.4866 15.5493 57.7213 16.5093 57.7213 17.64C57.7213 18.7707 57.4866 19.7307 57.0173 20.52C56.5479 21.3093 55.9506 21.9067 55.2253 22.312C54.4999 22.7173 53.7639 22.92 53.0173 22.92C52.1213 22.92 51.2893 22.7173 50.5213 22.312C49.7533 21.9067 49.1346 21.3093 48.6653 20.52C48.2173 19.7307 47.9933 18.7707 47.9933 17.64ZM70.6273 25.32C72.2059 25.32 73.5713 25.0107 74.7233 24.392C75.8966 23.752 76.8673 22.8133 77.6353 21.576L75.5553 20.264C75.0219 21.16 74.3713 21.832 73.6033 22.28C72.8353 22.7067 71.9499 22.92 70.9473 22.92C69.9446 22.92 69.0913 22.7067 68.3873 22.28C67.6833 21.8533 67.1499 21.2347 66.7873 20.424C66.4246 19.6133 66.2433 18.632 66.2433 17.48C66.2646 16.3493 66.4566 15.4 66.8193 14.632C67.2033 13.8427 67.7366 13.2453 68.4193 12.84C69.1233 12.4133 69.9659 12.2 70.9473 12.2C71.7793 12.2 72.5046 12.3813 73.1233 12.744C73.7419 13.1067 74.2219 13.608 74.5633 14.248C74.9259 14.888 75.1073 15.6453 75.1073 16.52C75.1073 16.6693 75.0753 16.8613 75.0113 17.096C74.9473 17.3093 74.8833 17.4693 74.8193 17.576L75.8433 16.104H65.2833V18.28H77.8593C77.8593 18.2373 77.8593 18.1413 77.8593 17.992C77.8806 17.8213 77.8913 17.6613 77.8913 17.512C77.8913 15.9547 77.6139 14.6107 77.0593 13.48C76.5046 12.3493 75.7046 11.4853 74.6593 10.888C73.6353 10.2693 72.3979 9.96 70.9473 9.96C69.4966 9.96 68.2166 10.28 67.1073 10.92C66.0193 11.56 65.1659 12.456 64.5473 13.608C63.9499 14.76 63.6513 16.104 63.6513 17.64C63.6513 19.1547 63.9393 20.488 64.5153 21.64C65.1126 22.792 65.9339 23.6987 66.9793 24.36C68.0459 25 69.2619 25.32 70.6273 25.32ZM83.96 10.28H81.4V25H83.96V10.28ZM88.408 13.096L89.816 10.984C89.432 10.5787 89.0053 10.312 88.536 10.184C88.088 10.0347 87.5973 9.96 87.064 9.96C86.3813 9.96 85.7093 10.2267 85.048 10.76C84.3867 11.2933 83.8427 12.0187 83.416 12.936C83.0107 13.832 82.808 14.8667 82.808 16.04H83.96C83.96 15.336 84.024 14.7067 84.152 14.152C84.3013 13.5973 84.5573 13.16 84.92 12.84C85.2827 12.52 85.784 12.36 86.424 12.36C86.8507 12.36 87.2027 12.424 87.48 12.552C87.7573 12.6587 88.0667 12.84 88.408 13.096ZM93.3608 18.216L91.1848 19.688C91.6754 20.6693 92.3048 21.5973 93.0728 22.472C93.8621 23.3253 94.7688 24.0187 95.7928 24.552C96.8381 25.064 97.9688 25.32 99.1848 25.32C100.081 25.32 100.934 25.1707 101.745 24.872C102.577 24.5733 103.313 24.1467 103.953 23.592C104.614 23.0373 105.126 22.3653 105.489 21.576C105.873 20.7867 106.065 19.9013 106.065 18.92C106.065 17.896 105.883 17.0213 105.521 16.296C105.158 15.5493 104.689 14.92 104.113 14.408C103.558 13.8747 102.95 13.4373 102.289 13.096C101.627 12.7547 100.998 12.4773 100.401 12.264C99.0994 11.816 98.0648 11.368 97.2968 10.92C96.5501 10.4507 96.0168 9.96 95.6968 9.448C95.3768 8.91467 95.2168 8.33867 95.2168 7.72C95.2168 6.99467 95.4941 6.344 96.0488 5.768C96.6034 5.17067 97.4888 4.872 98.7048 4.872C99.5794 4.872 100.315 5.04267 100.913 5.384C101.531 5.72533 102.054 6.16267 102.481 6.696C102.907 7.22933 103.259 7.77333 103.537 8.328L105.873 6.984C105.51 6.19467 105.009 5.448 104.369 4.744C103.729 4.01867 102.95 3.432 102.033 2.984C101.137 2.51467 100.081 2.28 98.8648 2.28C97.6061 2.28 96.4861 2.536 95.5048 3.048C94.5234 3.53867 93.7554 4.22133 93.2008 5.096C92.6461 5.97067 92.3688 6.96267 92.3688 8.072C92.3688 9.096 92.5608 9.96 92.9448 10.664C93.3501 11.368 93.8621 11.9653 94.4808 12.456C95.0994 12.9253 95.7501 13.32 96.4328 13.64C97.1154 13.9387 97.7341 14.184 98.2888 14.376C99.1421 14.6747 99.9421 15.016 100.689 15.4C101.457 15.7627 102.075 16.2427 102.545 16.84C103.014 17.4373 103.249 18.2373 103.249 19.24C103.249 20.264 102.886 21.1067 102.161 21.768C101.435 22.4293 100.475 22.76 99.2808 22.76C98.3848 22.76 97.5848 22.568 96.8808 22.184C96.1768 21.8 95.5368 21.2667 94.9608 20.584C94.4061 19.9013 93.8728 19.112 93.3608 18.216ZM107.66 10.28V12.68H115.02V10.28H107.66ZM110.06 5.16V25H112.62V5.16H110.06ZM118.74 20.456C118.74 19.9227 118.868 19.464 119.124 19.08C119.38 18.696 119.764 18.3973 120.276 18.184C120.809 17.9707 121.492 17.864 122.324 17.864C123.22 17.864 124.062 17.9813 124.852 18.216C125.641 18.4293 126.409 18.792 127.156 19.304V17.8C127.006 17.608 126.718 17.3627 126.292 17.064C125.865 16.744 125.289 16.4667 124.564 16.232C123.86 15.976 122.974 15.848 121.908 15.848C120.094 15.848 118.676 16.2853 117.652 17.16C116.649 18.0133 116.148 19.1547 116.148 20.584C116.148 21.5867 116.382 22.44 116.852 23.144C117.321 23.848 117.94 24.392 118.708 24.776C119.497 25.1387 120.34 25.32 121.236 25.32C122.046 25.32 122.857 25.1707 123.668 24.872C124.5 24.5733 125.193 24.1147 125.748 23.496C126.324 22.8773 126.612 22.0987 126.612 21.16L126.1 19.24C126.1 20.008 125.908 20.6907 125.524 21.288C125.161 21.864 124.66 22.312 124.02 22.632C123.401 22.952 122.697 23.112 121.908 23.112C121.289 23.112 120.734 23.016 120.244 22.824C119.774 22.6107 119.401 22.3013 119.124 21.896C118.868 21.4907 118.74 21.0107 118.74 20.456ZM118.356 13.672C118.59 13.5013 118.91 13.2987 119.316 13.064C119.721 12.8293 120.212 12.6267 120.788 12.456C121.385 12.2853 122.046 12.2 122.772 12.2C123.22 12.2 123.646 12.2427 124.052 12.328C124.457 12.4133 124.809 12.552 125.108 12.744C125.428 12.936 125.673 13.2027 125.844 13.544C126.014 13.864 126.1 14.28 126.1 14.792V25H128.66V14.44C128.66 13.48 128.414 12.6693 127.924 12.008C127.454 11.3467 126.782 10.8453 125.908 10.504C125.054 10.1413 124.052 9.96 122.9 9.96C121.534 9.96 120.361 10.1627 119.38 10.568C118.42 10.9733 117.662 11.3787 117.108 11.784L118.356 13.672ZM130.754 10.28V12.68H138.114V10.28H130.754ZM133.154 5.16V25H135.714V5.16H133.154Z" fill="#FF3D00"/>
</svg>
